HIERARCHY
ROOT Hips
{
 OFFSET 0.000000 0.000000 0.000000
 CHANNELS 6 Xposition Yposition Zposition Yrotation Xrotation Zrotation
 JOINT Chest
 {
  OFFSET 0.000000 9.857222 0.000240
  CHANNELS 3 Yrotation Xrotation Zrotation
  JOINT Chest2
  {
   OFFSET 0.000000 10.876940 -0.000436
   CHANNELS 3 Yrotation Xrotation Zrotation
   JOINT Chest3
   {
    OFFSET 0.000000 9.827798 0.000000
    CHANNELS 3 Yrotation Xrotation Zrotation
    JOINT Chest4
    {
     OFFSET 0.000000 9.827798 0.000000
     CHANNELS 3 Yrotation Xrotation Zrotation
     JOINT Neck
     {
      OFFSET 0.000000 13.831992 0.000000
      CHANNELS 3 Yrotation Xrotation Zrotation
      JOINT Head
      {
       OFFSET 0.000000 9.147643 -0.001036
       CHANNELS 3 Yrotation Xrotation Zrotation
       End Site
       {
        OFFSET 0.000000 17.515799 -0.000541
       }
      }
     }
     JOINT RightCollar
     {
      OFFSET -3.001579 7.717577 0.000000
      CHANNELS 3 Yrotation Xrotation Zrotation
      JOINT RightShoulder
      {
       OFFSET -14.002642 0.000000 0.000000
       CHANNELS 3 Yrotation Xrotation Zrotation
       JOINT RightElbow
       {
        OFFSET -30.053852 0.000000 0.000000
        CHANNELS 3 Yrotation Xrotation Zrotation
        JOINT RightWrist
        {
         OFFSET -24.564923 0.000000 -0.000000
         CHANNELS 3 Yrotation Xrotation Zrotation
         End Site
         {
          OFFSET -18.334355 0.000000 0.000000
         }
        }
       }
      }
     }
     JOINT LeftCollar
     {
      OFFSET 3.001579 7.717577 0.000000
      CHANNELS 3 Yrotation Xrotation Zrotation
      JOINT LeftShoulder
      {
       OFFSET 14.002642 0.000000 0.000000
       CHANNELS 3 Yrotation Xrotation Zrotation
       JOINT LeftElbow
       {
        OFFSET 30.053852 0.000000 0.000000
        CHANNELS 3 Yrotation Xrotation Zrotation
        JOINT LeftWrist
        {
         OFFSET 24.564923 0.000000 -0.000000
         CHANNELS 3 Yrotation Xrotation Zrotation
         End Site
         {
          OFFSET 18.334355 0.000000 0.000000
         }
        }
       }
      }
     }
    }
   }
  }
 }
 JOINT RightHip
 {
  OFFSET -8.003235 -0.001175 -0.000120
  CHANNELS 3 Yrotation Xrotation Zrotation
  JOINT RightKnee
  {
   OFFSET 0.000000 -41.759727 0.000113
   CHANNELS 3 Yrotation Xrotation Zrotation
   JOINT RightAnkle
   {
    OFFSET 0.000000 -40.728748 0.000159
    CHANNELS 3 Yrotation Xrotation Zrotation
    JOINT RightToe
    {
     OFFSET 0.000000 -6.515296 14.732841
     CHANNELS 3 Yrotation Xrotation Zrotation
     End Site
     {
      OFFSET 0.000000 -1.502839 6.412115
     }
    }
   }
  }
 }
 JOINT LeftHip
 {
  OFFSET 8.003235 -0.001175 -0.000120
  CHANNELS 3 Yrotation Xrotation Zrotation
  JOINT LeftKnee
  {
   OFFSET 0.000000 -41.759727 0.000113
   CHANNELS 3 Yrotation Xrotation Zrotation
   JOINT LeftAnkle
   {
    OFFSET 0.000000 -40.728748 0.000159
    CHANNELS 3 Yrotation Xrotation Zrotation
    JOINT LeftToe
    {
     OFFSET 0.000000 -6.515296 14.732841
     CHANNELS 3 Yrotation Xrotation Zrotation
     End Site
     {
      OFFSET 0.000000 -1.502839 6.412115
     }
    }
   }
  }
 }
}
MOTION
Frames: 11
Frame Time: 0.016667
3.972465 90.245814 24.445777 -34.450518 -6.853410 -1.273409 9.829438 -4.344505 2.097861 4.064882 -2.246228 0.980976 4.064882 -2.246228 0.980976 3.051887 -1.678241 0.750624 -10.337038 29.967945 1.351690 -18.576658 20.155991 4.160351 4.219230 38.272955 8.843724 91.959480 12.904430 -2.087301 4.749501 7.263288 -13.921727 5.953493 4.922506 -19.941673 -24.867452 31.569445 -21.502858 -16.193859 28.194970 -67.448251 -166.637710 -31.978907 23.964191 -0.864008 -0.802308 16.314881 -2.868871 7.130959 -3.276097 4.160412 5.630953 0.633455 -0.428833 -4.952887 1.848800 0.037095 -0.477683 -0.398725 -6.526875 9.055627 4.924827 19.178862 16.348797 -4.735957 -0.594954 -13.754285 1.804240 -0.405898 -0.230158 -0.529716
3.809441 90.235834 24.502496 -34.320580 -7.250585 -1.399328 10.266780 -4.616219 2.595172 4.299575 -2.314805 1.215488 4.299575 -2.314805 1.215488 3.228863 -1.727663 0.927840 -11.096243 30.100140 1.102691 -19.878044 20.445167 3.821297 3.744134 39.553153 8.114865 91.146727 17.712531 -0.758564 2.309462 0.389610 -16.982366 5.808897 4.197000 -18.573925 -25.661115 31.729069 -22.758946 -17.249721 31.305786 -69.420931 -166.873737 -28.699255 23.955885 -1.125116 -1.512792 16.806677 -2.263720 7.607155 -3.048808 4.111312 5.723713 0.644809 -0.570865 -4.995622 1.930490 0.036786 -0.462655 -0.414498 -5.681000 9.355638 5.227005 18.965361 16.658380 -4.540604 -1.051292 -13.922513 1.726741 -0.363828 -0.186996 -0.493854
3.617298 90.294753 24.605701 -33.762940 -8.131669 -1.544582 10.544344 -4.685942 3.002654 4.429394 -2.295241 1.403962 4.429394 -2.295241 1.403962 3.326897 -1.711375 1.069540 -11.730133 30.284552 0.937645 -20.970816 20.830147 3.599351 2.735970 40.808529 7.512256 88.137704 25.200485 -1.485128 4.853652 -9.322635 -20.490916 5.832214 3.734271 -17.655094 -26.589383 31.991346 -23.847152 -17.427417 33.050601 -70.419745 -166.876887 -26.663501 23.779992 -1.047628 -1.921881 17.489744 -2.081176 8.695985 -2.875772 3.907007 5.683974 0.660870 -0.577193 -4.766859 1.988428 0.038955 -0.707550 -0.423735 -5.201275 10.124191 5.432689 18.334245 16.894031 -4.372287 -1.129447 -13.813102 1.608954 -0.367826 -0.388308 -0.466767
3.492602 90.326654 24.667267 -33.026032 -8.265431 -1.697216 10.563050 -4.890018 3.161938 4.426727 -2.372395 1.493118 4.426727 -2.372395 1.493118 3.325393 -1.768606 1.136942 -12.079718 30.411785 0.830057 -21.570479 21.086632 3.442163 1.627746 42.422806 6.913556 85.508403 21.295120 -6.557509 7.228948 -4.843432 -17.795403 6.254382 3.897860 -18.601935 -27.414581 32.637679 -24.722549 -16.537542 33.078395 -70.223056 -166.255002 -26.927434 24.328866 -1.512581 -1.869336 16.885132 -2.199245 9.034418 -2.734379 3.542976 5.608813 0.688970 -0.450479 -4.598692 2.057059 0.038857 -0.848420 -0.436206 -4.836495 10.163211 5.739710 17.269414 16.978130 -4.450157 -1.022495 -13.784250 1.617956 -0.351134 -0.399486 -0.432953
3.416414 90.292979 24.633737 -32.565754 -7.810422 -1.810582 10.403556 -5.113070 3.180248 4.386118 -2.450297 1.504142 4.386118 -2.450297 1.504142 3.295144 -1.827054 1.145600 -12.120383 30.410591 0.744008 -21.628160 21.074106 3.297215 1.173502 42.970403 6.686190 87.281308 9.959548 -9.395544 6.865081 9.354915 -13.171895 6.271250 4.311815 -18.963049 -28.524899 33.467724 -25.719817 -14.831728 32.110820 -69.078846 -166.396218 -27.544933 24.269296 -1.502112 -1.759049 16.963737 -2.178161 8.671660 -2.557630 3.172391 5.596106 0.689387 -0.325481 -4.672153 2.115745 0.029781 -0.707603 -0.434853 -4.065457 9.610493 6.129019 16.588084 17.015577 -4.361955 -1.488570 -13.939358 1.557843 -0.220922 -0.164977 -0.353514
3.335227 90.253655 24.558900 -32.403136 -7.600766 -1.815222 10.159209 -5.145473 3.174519 4.351026 -2.393494 1.486382 4.351026 -2.393494 1.486382 3.268641 -1.784660 1.131742 -11.969355 30.361642 0.663459 -21.347091 20.952525 3.141365 1.203689 42.162919 6.637253 89.848645 5.303099 -7.736234 4.455424 17.375447 -13.024446 6.183492 3.682443 -18.808500 -28.421991 33.169875 -25.485540 -14.079806 32.098817 -68.237463 -166.535344 -28.064608 24.393201 -1.456369 -1.808247 17.030487 -1.908184 8.459499 -2.408895 2.834985 5.669357 0.631827 -0.261832 -4.836247 2.145699 0.018799 -0.488962 -0.402479 -3.182456 9.289858 6.362478 16.429367 17.068543 -4.051393 -2.234026 -14.055244 1.363557 -0.035438 0.030818 -0.246073
3.272662 90.232150 24.507300 -32.280699 -7.506600 -1.713560 9.900659 -5.042442 3.079269 4.275670 -2.307974 1.425673 4.275670 -2.307974 1.425673 3.211725 -1.721119 1.085328 -11.711772 30.320863 0.619239 -20.882556 20.840740 3.031923 1.206891 41.062680 6.400920 90.116678 7.035382 -6.531829 4.331493 15.413424 -13.374426 6.001314 3.678318 -18.604030 -27.200254 32.017379 -24.187335 -15.003532 32.911409 -68.118548 -166.342180 -28.043120 24.747546 -1.344138 -1.781320 17.034844 -1.617918 8.318630 -2.387883 2.598786 5.820349 0.593864 -0.284360 -5.007866 2.143775 0.010838 -0.321921 -0.343814 -2.644637 9.100764 6.381317 16.095999 17.079294 -3.864227 -2.416234 -14.041860 1.205550 0.044381 0.094374 -0.181392
3.261990 90.207215 24.476268 -32.259143 -7.513933 -1.553847 9.595165 -4.832233 2.936903 4.156904 -2.206432 1.352104 4.156904 -2.206432 1.352104 3.122194 -1.645728 1.029023 -11.345276 30.270381 0.610764 -20.230847 20.705894 2.969730 1.496920 40.602699 6.273576 88.830660 11.017495 -6.470041 5.974624 9.661257 -13.903214 5.658094 3.562138 -18.779348 -26.388879 31.410262 -23.375327 -16.081407 32.890318 -67.504955 -165.837035 -27.421096 25.058989 -1.088418 -1.762890 17.164284 -1.154265 8.230631 -2.446312 2.366147 6.037281 0.575264 -0.352454 -5.231121 2.144835 0.009513 -0.142864 -0.276254 -2.471555 9.039500 6.247344 15.548177 17.073054 -3.907336 -2.064679 -14.049000 1.177171 0.026064 0.156360 -0.157403
3.294871 90.190803 24.448056 -32.355899 -7.636140 -1.381677 9.257811 -4.546066 2.783876 4.023579 -2.069822 1.282495 4.023579 -2.069822 1.282495 3.021717 -1.544011 0.975449 -10.909154 30.179131 0.654061 -19.465499 20.497820 2.992606 2.147943 40.180198 6.525626 87.872309 13.753724 -6.060023 7.521085 5.083105 -15.358210 5.371125 3.374851 -18.561152 -25.756559 31.146134 -22.781427 -17.079966 32.136191 -66.441836 -164.882358 -26.841209 25.399707 -0.902317 -1.582245 16.959564 -0.498823 8.227536 -2.517952 2.045783 6.261395 0.553799 -0.396728 -5.414245 2.162301 0.013140 0.003740 -0.214160 -2.711676 9.126687 5.994533 15.538187 17.105791 -3.959078 -1.714452 -14.051797 1.207069 -0.041669 0.179122 -0.152943
3.355412 90.184575 24.414620 -32.414028 -7.669307 -1.239868 8.865868 -4.359184 2.667274 3.858385 -1.981798 1.224695 3.858385 -1.981798 1.224695 2.897486 -1.478695 0.930990 -10.482230 30.096971 0.676099 -18.712803 20.305137 2.976614 2.721707 39.663177 6.776663 88.076538 12.055201 -5.612360 9.260635 4.686908 -15.951165 5.089123 3.086638 -18.107319 -25.245646 30.982473 -22.291747 -17.989255 30.959023 -65.237364 -163.526344 -26.197703 25.268996 -0.602054 -1.215006 16.708610 0.066431 8.135599 -2.597408 1.711498 6.461817 0.553699 -0.402061 -5.533267 2.178215 0.017292 0.097796 -0.162088 -3.128450 9.138954 5.727458 16.160036 17.129673 -3.833859 -1.842241 -14.032677 1.197405 -0.056482 0.208818 -0.127409
3.409390 90.180925 24.371682 -32.560768 -7.683225 -1.139207 8.435390 -4.216998 2.636393 3.671518 -1.920884 1.188434 3.671518 -1.920884 1.188434 2.757130 -1.433592 0.902825 -10.042595 30.023865 0.640261 -17.927300 20.120567 2.853978 3.235171 39.243013 6.892397 88.326426 8.270259 -5.835421 12.322438 5.214555 -15.491801 4.748522 2.866135 -17.631489 -24.963129 30.979319 -22.040537 -18.648740 29.223501 -63.723714 -161.508314 -25.050696 24.781948 -0.023719 -0.641849 16.391916 0.562414 8.037151 -2.646476 1.461242 6.597899 0.562136 -0.365457 -5.600224 2.170984 0.018198 0.172991 -0.114109 -3.248016 9.156225 5.598956 16.598691 17.110921 -3.772402 -2.046613 -14.013766 1.166570 0.006588 0.250498 -0.070215
